# xmcd
#
# Track frame offsets:
#	150
#	22186
#	38644
#	59980
#	76726
#	97286
#	124877
#	145745
#	165508
#	188874
#	211622
#	230642
#	256615
#	275392
#
# Disc length: 3960 seconds
#
# Revision: 0
# Processed by: cddbd v1.5.2PL0 Copyright (c) Steve Scherf et al.
# Submitted via: EasyCDDAExtractor 2010.6.0.0
#
DISCID=c30f760e
DTITLE=Various Artist - CONTACT
DYEAR=2014
DGENRE=club
TTITLE0=ATB feat. Sean Ryan - When It Ends It Starts Again
TTITLE1=ATB with Boss and Swan - Raging Bull
TTITLE2=ATB and JES - Together
TTITLE3=ATB feat. Stanfour - Face To Face
TTITLE4=ATB feat. Boss and Swan - Beam Me Up
TTITLE5=ATB and JES - Hard To Cure
TTITLE6=ATB feat. JanSoon - Now Or Never
TTITLE7=ATB feat. Sean Ryan - Straight To The Stars
TTITLE8=ATB with Boss and Swan - Walking Awake
TTITLE9=ATB and Taylr - Everything Is Beautiful
TTITLE10=ATB feat. JanSoon - What Are You Waiting Fo
TTITLE11=ATB feat. Tiff Lacey - Still Here (ATB's Anthem 2014 Version)
TTITLE12=ATB feat. Vanessa - Arms Wide Open
TTITLE13=ATB and York feat. JES - Right Back To You
EXTD=
EXTT0=
EXTT1=
EXTT2=
EXTT3=
EXTT4=
EXTT5=
EXTT6=
EXTT7=
EXTT8=
EXTT9=
EXTT10=
EXTT11=
EXTT12=
EXTT13=
PLAYORDER=
